<!-- Generated by IcoMoon.io -->
<svg version="1.1" xmlns="http://www.w3.org/2000/svg" width="32" height="32" viewBox="0 0 32 32">
<title>media-inquiries</title>
<path fill="none" stroke-linejoin="round" stroke-linecap="round" stroke-miterlimit="1.5" stroke-width="1.6657" stroke="#000" d="M31.316 12.919c0-2.115-1.717-3.832-3.832-3.832h-7.665c-2.115 0-3.832 1.717-3.832 3.832v14.285c0 2.115 1.717 3.833 3.832 3.833h7.665c2.115 0 3.832-1.717 3.832-3.833v-14.285z"></path>
<path fill="#f9f9f9" stroke-linejoin="round" stroke-linecap="round" stroke-miterlimit="1.5" stroke-width="1.0861" stroke="#000" d="M26.709 7.084c0-3.61-2.931-6.541-6.542-6.541h-13.083c-3.61 0-6.541 2.931-6.541 6.541v17.755c0 3.61 2.931 6.542 6.541 6.542h13.083c3.61 0 6.542-2.931 6.542-6.542v-17.755z"></path>
<path fill="#f9f9f9" stroke-linejoin="round" stroke-linecap="round" stroke-miterlimit="1.5" stroke-width="1.9596" stroke="#000" d="M22.128 8.091c0-0.708-0.575-1.282-1.282-1.282h-14.439c-0.708 0-1.282 0.575-1.282 1.282v10.927c0 0.708 0.575 1.282 1.282 1.282h14.439c0.708 0 1.282-0.575 1.282-1.282v-10.927z"></path>
<path fill="none" stroke-linejoin="round" stroke-linecap="round" stroke-miterlimit="1.5" stroke-width="2.5777" stroke="#000" d="M5.347 25.115h15.826"></path>
</svg>
